<svg width="30" height="30" viewBox="0 0 30 30" fill="none" xmlns="http://www.w3.org/2000/svg">
<path fill-rule="evenodd" clip-rule="evenodd" d="M6.70711 5.2929C6.31659 4.90237 5.68342 4.90237 5.2929 5.29289C4.90237 5.68341 4.90237 6.31658 5.29289 6.7071L13.1712 14.5854L5.29293 22.4637C4.90241 22.8542 4.90241 23.4874 5.29293 23.8779C5.68346 24.2684 6.31662 24.2684 6.70715 23.8779L14.5854 15.9996L22.4634 23.8777C22.8539 24.2682 23.487 24.2682 23.8776 23.8777C24.2681 23.4871 24.2681 22.854 23.8776 22.4635L15.9996 14.5854L23.8776 6.70735C24.2681 6.31682 24.2681 5.68366 23.8776 5.29313C23.4871 4.90261 22.8539 4.90261 22.4634 5.29314L14.5854 13.1712L6.70711 5.2929Z" fill="#264B82"/>
</svg>
